<svg width="100" height="100" viewBox="0 0 100 100" fill="none" xmlns="http://www.w3.org/2000/svg">
<path d="M91.1608 54.2368C90.9343 53.8443 90.7362 53.5358 90.5947 53.2554C89.6111 51.3429 88.76 49.3663 88.0475 47.3392C87.246 44.3518 86.9401 41.2551 87.1419 38.1704C87.1419 36.432 87.1419 34.6093 87.1419 32.7588C86.9107 28.789 85.6956 24.9369 83.6041 21.5431C81.6147 18.3455 79.207 15.4229 76.4438 12.851C61.4438 -0.57985 34.557 -1.4211 18.906 11.0283C15.4096 13.6457 12.4946 16.9482 10.3425 20.7301C8.19032 24.5121 6.84715 28.6926 6.39659 33.0112C5.95765 36.5026 5.95765 40.0345 6.39659 43.5259C8.02777 55.0427 13.4614 65.7006 21.8494 73.8363C29.4343 81.1265 38.8306 78.659 44.8306 74.3129C46.405 73.2194 47.9167 72.0399 49.3589 70.78C49.3589 70.78 49.3589 70.78 49.3589 70.6398C52.5287 67.5835 55.7268 64.5553 58.8117 61.6672C62.252 58.5981 65.4677 55.2905 68.4343 51.7694C73.3871 45.6288 74.2928 39.0677 70.8683 33.7963C69.6424 31.9361 67.9617 30.4132 65.9825 29.369C64.0032 28.3249 61.7897 27.7934 59.5475 27.8239C55.1141 27.8794 50.8785 29.6504 47.7456 32.7588C44.6128 29.6504 40.3771 27.8794 35.9437 27.8239C33.6684 27.7598 31.4145 28.2752 29.3977 29.3208C27.3809 30.3665 25.6687 31.9075 24.4249 33.7963C21.0003 39.0677 21.8777 45.6288 26.8588 51.7414C29.7632 55.1581 32.9028 58.3716 36.2551 61.3588C36.4865 61.6105 36.7679 61.812 37.0817 61.9506C37.3955 62.0893 37.7348 62.1621 38.0784 62.1645C38.422 62.167 38.7624 62.099 39.0781 61.9648C39.3939 61.8306 39.6782 61.6331 39.9132 61.3848C40.1482 61.1364 40.3288 60.8426 40.4436 60.5218C40.5584 60.201 40.605 59.8601 40.5804 59.5205C40.5558 59.181 40.4606 58.8502 40.3007 58.5489C40.1408 58.2476 39.9197 57.9823 39.6513 57.7698C36.3936 54.8557 33.3483 51.7168 30.5381 48.3766C28.84 46.3017 25.2739 40.9463 28.3871 36.1516C29.1889 34.9646 30.2826 33.9993 31.565 33.3469C32.8474 32.6944 34.2765 32.3762 35.7173 32.4223C37.648 32.4472 39.5434 32.9376 41.2397 33.8512C42.9361 34.7648 44.3822 36.074 45.4532 37.6656C45.6727 38.0198 45.9809 38.3118 46.3478 38.5133C46.7148 38.7147 47.128 38.8187 47.5475 38.8152C47.9708 38.8181 48.3878 38.7141 48.7592 38.5129C49.1306 38.3118 49.4441 38.0201 49.6702 37.6656C50.7331 36.0728 52.1736 34.7621 53.8658 33.848C55.5581 32.934 57.4505 32.4445 59.3777 32.4223C60.8187 32.3996 62.2432 32.7278 63.5263 33.378C64.8093 34.0282 65.9116 34.9806 66.7362 36.1516C69.8494 40.9463 66.2551 46.3017 64.5853 48.3766C61.7751 51.7256 58.7298 54.8739 55.472 57.7979C52.2739 60.742 48.9626 63.8823 45.7362 67.0227C45.0287 67.6676 43.1607 69.0415 41.8872 69.9949C40.6136 70.9482 32.1796 76.5561 25.3305 69.9949C17.6862 62.6645 12.7098 53.0309 11.1796 42.6006C10.7832 39.51 10.7832 36.3821 11.1796 33.2915C11.6053 29.5392 12.7789 25.9079 14.6324 22.6086C16.5142 19.4819 18.9719 16.7332 21.8777 14.5053C35.7456 3.28956 59.6324 4.18678 72.8211 16.1315C75.2709 18.3827 77.3948 20.9587 79.1324 23.7862C80.8306 26.5414 81.8037 29.6747 81.9626 32.899C81.9626 34.5533 81.9626 36.2077 81.9626 37.918C81.7496 41.5164 82.132 45.125 83.0947 48.601C83.886 50.8585 84.8316 53.06 85.9249 55.1902C86.1324 55.5827 86.3871 56.0314 86.689 56.5361C87.1568 57.264 87.5548 58.0338 87.8777 58.8353C87.5664 60.4055 85.8966 61.2747 83.1796 62.5084C82.1209 62.9605 81.0907 63.4755 80.0947 64.0506C77.5192 65.6208 76.5287 69.6584 75.2551 74.8176C74.3777 78.4627 72.8777 84.5473 71.0664 85.1641C68.4842 85.8098 65.7806 85.8098 63.1985 85.1641C60.7122 84.5178 58.0998 84.5178 55.6136 85.1641C51.5593 87.3352 47.9119 90.1806 44.8306 93.5759C44.4887 93.9203 44.2576 94.3575 44.1668 94.8321C44.076 95.3068 44.1295 95.7974 44.3205 96.2419C44.5114 96.6864 44.8313 97.0647 45.2396 97.3289C45.6478 97.593 46.126 97.7311 46.6136 97.7257C46.9473 97.7274 47.2778 97.661 47.5845 97.5308C47.8912 97.4006 48.1676 97.2093 48.3966 96.9687C50.9759 94.138 53.9951 91.7337 57.34 89.8467C59.0268 89.5851 60.7495 89.6613 62.406 90.071C65.8093 90.8859 69.367 90.8183 72.7362 89.8748C77.0664 88.3607 78.5947 82.1079 80.0664 76.0794C80.5266 73.3696 81.4148 70.7485 82.6985 68.3126C83.5182 67.8363 84.3692 67.4147 85.2456 67.0508C88.0758 65.7049 91.8966 64.0226 92.7456 59.9008C92.8972 57.8878 92.3369 55.8852 91.1608 54.2368Z" fill="#01575C"/>
</svg>

